<svg width="500" height="500" viewBox="0 0 25 25" fill="none" xmlns="http://www.w3.org/2000/svg">
  <path fill-rule="evenodd" clip-rule="evenodd" d="M10 0L10 1L8 1L8 3L9 3L9 4L8 4L8 8L6 8L6 9L4 9L4 8L3 8L3 9L2 9L2 8L0 8L0 9L2 9L2 10L1 10L1 11L2 11L2 12L3 12L3 13L2 13L2 15L1 15L1 14L0 14L0 15L1 15L1 16L0 16L0 17L2 17L2 15L3 15L3 16L5 16L5 17L8 17L8 19L9 19L9 21L8 21L8 22L9 22L9 23L8 23L8 25L9 25L9 23L11 23L11 21L12 21L12 22L14 22L14 23L12 23L12 25L14 25L14 24L15 24L15 25L17 25L17 24L19 24L19 25L20 25L20 24L19 24L19 23L21 23L21 24L22 24L22 23L23 23L23 21L22 21L22 20L24 20L24 19L25 19L25 17L24 17L24 18L23 18L23 19L22 19L22 17L23 17L23 16L24 16L24 15L25 15L25 12L23 12L23 13L22 13L22 12L21 12L21 10L19 10L19 9L21 9L21 8L18 8L18 9L17 9L17 4L15 4L15 3L16 3L16 2L17 2L17 0L13 0L13 2L15 2L15 3L14 3L14 4L12 4L12 10L13 10L13 11L9 11L9 12L10 12L10 13L12 13L12 14L11 14L11 15L12 15L12 16L10 16L10 15L9 15L9 13L8 13L8 10L6 10L6 9L8 9L8 8L9 8L9 5L10 5L10 8L11 8L11 4L10 4L10 3L9 3L9 2L11 2L11 0ZM14 4L14 5L13 5L13 8L14 8L14 5L15 5L15 4ZM15 6L15 7L16 7L16 6ZM15 8L15 9L14 9L14 10L15 10L15 11L14 11L14 12L17 12L17 11L18 11L18 12L20 12L20 14L21 14L21 16L23 16L23 15L24 15L24 13L23 13L23 15L22 15L22 14L21 14L21 12L20 12L20 11L19 11L19 10L17 10L17 11L16 11L16 8ZM22 8L22 9L24 9L24 10L23 10L23 11L25 11L25 9L24 9L24 8ZM9 9L9 10L10 10L10 9ZM3 10L3 12L4 12L4 13L3 13L3 15L6 15L6 16L7 16L7 15L6 15L6 14L7 14L7 13L5 13L5 12L7 12L7 11L6 11L6 10L5 10L5 11L4 11L4 10ZM4 13L4 14L5 14L5 13ZM14 13L14 14L15 14L15 16L13 16L13 18L11 18L11 17L10 17L10 18L9 18L9 19L10 19L10 20L12 20L12 21L13 21L13 20L14 20L14 17L15 17L15 16L16 16L16 15L17 15L17 14L18 14L18 13ZM12 14L12 15L13 15L13 14ZM8 15L8 17L9 17L9 15ZM18 15L18 16L20 16L20 15ZM17 17L17 20L20 20L20 17ZM10 18L10 19L11 19L11 18ZM18 18L18 19L19 19L19 18ZM15 19L15 21L14 21L14 22L15 22L15 21L16 21L16 23L19 23L19 21L18 21L18 22L17 22L17 21L16 21L16 19ZM9 21L9 22L10 22L10 21ZM21 22L21 23L22 23L22 22ZM24 22L24 23L25 23L25 22ZM23 24L23 25L25 25L25 24ZM0 0L0 7L7 7L7 0ZM1 1L1 6L6 6L6 1ZM2 2L2 5L5 5L5 2ZM18 0L18 7L25 7L25 0ZM19 1L19 6L24 6L24 1ZM20 2L20 5L23 5L23 2ZM0 18L0 25L7 25L7 18ZM1 19L1 24L6 24L6 19ZM2 20L2 23L5 23L5 20Z" fill="#f2994a"/>
</svg>